<svg width="30" height="30" viewBox="0 0 35 35" fill="none" xmlns="http://www.w3.org/2000/svg">
<rect width="35" height="35" rx="17.5" fill="#EEFCF9"/>
<g clip-path="url(#clip0_3127_2141)">
<path d="M26.25 16.6949V17.4999C26.2489 19.3868 25.6379 21.2227 24.5082 22.734C23.3784 24.2452 21.7904 25.3508 19.9809 25.8858C18.1715 26.4208 16.2376 26.3565 14.4677 25.7026C12.6977 25.0487 11.1866 23.8402 10.1596 22.2573C9.13261 20.6744 8.64482 18.8019 8.76897 16.9192C8.89312 15.0364 9.62256 13.2442 10.8485 11.8098C12.0744 10.3755 13.7312 9.37584 15.5717 8.96001C17.4121 8.54418 19.3377 8.73443 21.0613 9.50238M26.25 10.4999L17.5 19.2586L14.875 16.6336" stroke="#1ECBAC" stroke-width="1.66667" stroke-linecap="round" stroke-linejoin="round"/>
</g>
<defs>
<clipPath id="clip0_3127_2141">
<rect width="21" height="21" fill="white" transform="translate(7 7)"/>
</clipPath>
</defs>
</svg>
