<svg width="18" height="18" viewBox="0 0 18 18" fill="none" xmlns="http://www.w3.org/2000/svg">
<path d="M9.01073 0.385742C8.81185 0.385742 8.621 0.464762 8.48037 0.605385C8.33975 0.746008 8.26073 0.936859 8.26073 1.13574V8.26074H1.13573C0.867707 8.26074 0.620117 8.40371 0.486189 8.63574C0.35226 8.86777 0.35226 9.15371 0.486189 9.38574C0.620117 9.61777 0.867716 9.76074 1.13573 9.76074H8.26073V16.8857C8.26073 17.1538 8.4037 17.4014 8.63573 17.5353C8.86776 17.6692 9.1537 17.6692 9.38573 17.5353C9.61776 17.4014 9.76073 17.1538 9.76073 16.8857V1.13574C9.76073 0.936859 9.68171 0.746008 9.54109 0.605385C9.40047 0.464762 9.20961 0.385742 9.01073 0.385742Z" fill="white"/>
<path d="M16.8857 8.26074H12.3857C12.1177 8.26074 11.8701 8.40371 11.7362 8.63574C11.6023 8.86778 11.6023 9.15371 11.7362 9.38574C11.8701 9.61777 12.1177 9.76074 12.3857 9.76074H16.8857C17.1538 9.76074 17.4013 9.61778 17.5353 9.38574C17.6692 9.15371 17.6692 8.86777 17.5353 8.63574C17.4013 8.40371 17.1537 8.26074 16.8857 8.26074Z" fill="white"/>
</svg>
