<svg width="30" height="30" viewBox="0 0 30 30" fill="none" xmlns="http://www.w3.org/2000/svg">
<g clip-path="url(#clip0_3379_755)">
<rect width="30" height="30" rx="15" fill="#2333E6"/>
<path d="M15.0107 6.38574C14.8118 6.38574 14.621 6.46476 14.4804 6.60539C14.3398 6.74601 14.2607 6.93686 14.2607 7.13574V14.2607H7.13573C6.86771 14.2607 6.62012 14.4037 6.48619 14.6357C6.35226 14.8678 6.35226 15.1537 6.48619 15.3857C6.62012 15.6178 6.86772 15.7607 7.13573 15.7607H14.2607V22.8857C14.2607 23.1538 14.4037 23.4014 14.6357 23.5353C14.8678 23.6692 15.1537 23.6692 15.3857 23.5353C15.6178 23.4014 15.7607 23.1538 15.7607 22.8857V7.13574C15.7607 6.93686 15.6817 6.74601 15.5411 6.60539C15.4005 6.46476 15.2096 6.38574 15.0107 6.38574Z" fill="white"/>
<path d="M22.8857 14.2607H18.3857C18.1177 14.2607 17.8701 14.4037 17.7362 14.6357C17.6023 14.8678 17.6023 15.1537 17.7362 15.3857C17.8701 15.6178 18.1177 15.7607 18.3857 15.7607H22.8857C23.1538 15.7607 23.4013 15.6178 23.5353 15.3857C23.6692 15.1537 23.6692 14.8678 23.5353 14.6357C23.4013 14.4037 23.1537 14.2607 22.8857 14.2607Z" fill="white"/>
</g>
<defs>
<clipPath id="clip0_3379_755">
<rect width="30" height="30" rx="15" fill="white"/>
</clipPath>
</defs>
</svg>
