<svg width="49" height="49" viewBox="0 0 49 49" fill="none" xmlns="http://www.w3.org/2000/svg">
<circle cx="24.5" cy="24.5" r="24.5" fill="url(#paint0_linear_4574_8698)"/>
<path d="M34.8549 12.4043C36.2269 12.4043 37.3495 13.5269 37.3495 14.8989V21.7589C37.3495 23.1309 36.2269 24.2535 34.8549 24.2535H27.9949C26.6229 24.2535 25.5003 23.1309 25.5003 21.7589V14.8989C25.5003 13.5269 26.6229 12.4043 27.9949 12.4043H34.8549ZM21.7586 12.4043C23.1306 12.4043 24.2532 13.5269 24.2532 14.8989V21.7589C24.2532 23.1309 23.1306 24.2535 21.7586 24.2535H14.8986C13.5266 24.2535 12.4041 23.1309 12.4041 21.7589V14.8989C12.4041 13.5269 13.5266 12.4043 14.8986 12.4043H21.7586ZM34.8549 25.5005C36.2269 25.5005 37.3495 26.6231 37.3495 27.9951V34.8551C37.3495 36.2271 36.2269 37.3497 34.8549 37.3497H27.9949C26.6229 37.3497 25.5003 36.2271 25.5003 34.8551V27.9951C25.5003 26.6231 26.6229 25.5005 27.9949 25.5005H34.8549ZM21.7586 25.5005C23.1306 25.5005 24.2532 26.6231 24.2532 27.9951V34.8551C24.2532 36.2271 23.1306 37.3497 21.7586 37.3497H14.8986C13.5266 37.3497 12.4041 36.2271 12.4041 34.8551V27.9951C12.4041 26.6231 13.5266 25.5005 14.8986 25.5005H21.7586Z" fill="white"/>
<circle cx="31.85" cy="30.4498" r="10.15" fill="#D4F1EC"/>
<path d="M26.5999 29.0859L30.8349 33.5997L41.9999 21.6997" stroke="#1ECBAC" stroke-width="3" stroke-linecap="round"/>
<defs>
<linearGradient id="paint0_linear_4574_8698" x1="24.5" y1="0" x2="24.5" y2="49" gradientUnits="userSpaceOnUse">
<stop stop-color="#1E9A7C" stop-opacity="0.17"/>
<stop offset="1" stop-color="#1E569A" stop-opacity="0.04"/>
</linearGradient>
</defs>
</svg>
