<svg width="49" height="49" viewBox="0 0 49 49" fill="none" xmlns="http://www.w3.org/2000/svg">
<circle cx="24.5" cy="24.5" r="24.5" fill="url(#paint0_linear_4574_8718)"/>
<path d="M34.8548 12.4043C36.2268 12.4043 37.3493 13.5269 37.3493 14.8989V21.7589C37.3493 23.1309 36.2268 24.2535 34.8548 24.2535H27.9948C26.6228 24.2535 25.5002 23.1309 25.5002 21.7589V14.8989C25.5002 13.5269 26.6228 12.4043 27.9948 12.4043H34.8548ZM21.7585 12.4043C23.1305 12.4043 24.2531 13.5269 24.2531 14.8989V21.7589C24.2531 23.1309 23.1305 24.2535 21.7585 24.2535H14.8985C13.5265 24.2535 12.4039 23.1309 12.4039 21.7589V14.8989C12.4039 13.5269 13.5265 12.4043 14.8985 12.4043H21.7585ZM34.8548 25.5005C36.2268 25.5005 37.3493 26.6231 37.3493 27.9951V34.8551C37.3493 36.2271 36.2268 37.3497 34.8548 37.3497H27.9948C26.6228 37.3497 25.5002 36.2271 25.5002 34.8551V27.9951C25.5002 26.6231 26.6228 25.5005 27.9948 25.5005H34.8548ZM21.7585 25.5005C23.1305 25.5005 24.2531 26.6231 24.2531 27.9951V34.8551C24.2531 36.2271 23.1305 37.3497 21.7585 37.3497H14.8985C13.5265 37.3497 12.4039 36.2271 12.4039 34.8551V27.9951C12.4039 26.6231 13.5265 25.5005 14.8985 25.5005H21.7585Z" fill="white"/>
<circle cx="31.85" cy="30.4498" r="10.15" fill="#FCDFDF"/>
<path d="M36.5458 25.7539L27.1542 35.1456M27.1542 25.7539L36.5458 35.1456" stroke="#F05858" stroke-width="3" stroke-linecap="round" stroke-linejoin="round"/>
<defs>
<linearGradient id="paint0_linear_4574_8718" x1="24.5" y1="0" x2="24.5" y2="49" gradientUnits="userSpaceOnUse">
<stop stop-color="#9A1E1E" stop-opacity="0.17"/>
<stop offset="1" stop-color="#9A251E" stop-opacity="0.04"/>
</linearGradient>
</defs>
</svg>
