<svg width="11" height="7" viewBox="0 0 11 7" fill="none" xmlns="http://www.w3.org/2000/svg">
<path d="M1.08009 2.08593L1.08008 2.08594L1.08098 2.08686L5.34024 6.44615L5.34023 6.44616L5.34105 6.44698C5.44835 6.55427 5.59805 6.61287 5.74501 6.6202C5.89212 6.62755 6.04716 6.58379 6.15895 6.47199L6.15896 6.472L6.15997 6.47096L10.4192 2.08666L10.4192 2.08666L10.4199 2.08595C10.5664 1.93219 10.6162 1.75044 10.5955 1.57619C10.5752 1.40488 10.4877 1.24555 10.3679 1.12577C10.2482 1.00607 10.0897 0.919569 9.92018 0.902791C9.74728 0.885684 9.56985 0.942127 9.42333 1.09573C9.4232 1.09587 9.42306 1.09601 9.42293 1.09616L5.76212 4.85536L2.07677 1.09615C2.07659 1.09596 2.07641 1.09577 2.07622 1.09558C1.92973 0.942097 1.75238 0.885681 1.57957 0.902772C1.41002 0.919539 1.25163 1.00603 1.13192 1.12573C1.01214 1.2455 0.924717 1.40484 0.904451 1.57615C0.883837 1.75041 0.933651 1.93215 1.08009 2.08593Z" fill="#272833" stroke="#272833" stroke-width="0.2"/>
</svg>
