<svg width="15" height="16" viewBox="0 0 15 16" fill="none" xmlns="http://www.w3.org/2000/svg">
<g clip-path="url(#clip0_2657_353)">
<path d="M12.4495 2.22283H11.8762V1.89521C11.8762 1.66105 11.7513 1.44474 11.5486 1.32774C11.3459 1.21073 11.0961 1.21073 10.8934 1.32774C10.6907 1.44474 10.5658 1.66106 10.5658 1.89521V2.22283H6.88001C6.64585 2.22283 6.42955 2.34774 6.31254 2.55045C6.19553 2.75317 6.19553 3.00298 6.31254 3.20569C6.42955 3.4084 6.64586 3.53331 6.88001 3.53331H10.5658V4.84379C10.5658 5.07795 10.6907 5.29426 10.8934 5.41126C11.0961 5.52827 11.3459 5.52827 11.5486 5.41126C11.7513 5.29426 11.8762 5.07794 11.8762 4.84379V3.53331H12.4495C12.7971 3.53331 13.1304 3.67138 13.3762 3.91709C13.622 4.16295 13.76 4.49629 13.76 4.84379V6.48189H1.31048V4.84379C1.31048 4.49628 1.44855 4.16294 1.69426 3.91709C1.94012 3.67138 2.27346 3.53331 2.62096 3.53331H3.19427V4.67998C3.19427 4.91414 3.31918 5.13045 3.52189 5.24745C3.72461 5.36446 3.97442 5.36446 4.17713 5.24745C4.37985 5.13045 4.50475 4.91413 4.50475 4.67998V1.7314C4.50475 1.49724 4.37985 1.28093 4.17713 1.16393C3.97442 1.04692 3.72461 1.04692 3.52189 1.16393C3.31918 1.28093 3.19427 1.49725 3.19427 1.7314V2.22283H2.62096C1.9258 2.22283 1.25915 2.49897 0.767716 2.99055C0.276137 3.48198 0 4.14864 0 4.84379V12.379C0 13.0742 0.276137 13.7409 0.767716 14.2323C1.25915 14.7239 1.9258 15 2.62096 15H12.4495C13.1447 15 13.8114 14.7239 14.3028 14.2323C14.7944 13.7409 15.0705 13.0742 15.0705 12.379V4.84379C15.0705 4.14864 14.7944 3.48198 14.3028 2.99055C13.8114 2.49897 13.1447 2.22283 12.4495 2.22283ZM12.4495 13.6895H2.62096C2.27345 13.6895 1.94011 13.5515 1.69426 13.3057C1.44855 13.0599 1.31048 12.7265 1.31048 12.379V7.79237H13.76V12.379C13.76 12.7266 13.622 13.0599 13.3762 13.3057C13.1304 13.5515 12.7971 13.6895 12.4495 13.6895Z" fill="#9FA2B0"/>
</g>
<defs>
<clipPath id="clip0_2657_353">
<rect width="15" height="15" fill="white" transform="translate(0 0.5)"/>
</clipPath>
</defs>
</svg>
