<svg width="34" height="33" viewBox="0 0 34 33" fill="none" xmlns="http://www.w3.org/2000/svg">
<path d="M32.1848 14.0282L31.3008 13.7913L28.7473 23.321C28.3496 24.8054 27.1104 25.9121 25.343 25.4385L8.0431 20.803L7.92118 21.2581C7.56944 22.5708 8.73579 24.3017 10.2979 24.7203L23.5259 28.2647L27.8036 32.538L27.8508 29.4229L28.0438 29.4746C29.6047 29.8929 30.6643 28.7563 31.0155 27.4455L33.8426 16.8947C34.1965 15.5818 33.7456 14.4464 32.1848 14.0282Z" fill="#515478"/>
<path d="M28.3959 6.40287L8.30239 1.01885C6.53437 0.545109 4.08722 1.54053 3.68931 3.02553L0.487823 14.9737C0.121373 16.3413 1.58034 17.7908 3.19325 18.3853L1.04709 22.1048L9.00757 19.9764L23.7037 23.9142C25.4711 24.3878 27.3851 23.7737 27.7826 22.29L30.9838 10.3431C31.382 8.85686 30.1632 6.87644 28.3959 6.40287ZM8.66547 11.9267C8.30631 11.8306 7.98318 11.6321 7.73693 11.3565C7.49069 11.0808 7.33239 10.7403 7.28207 10.3781C7.23175 10.0158 7.29166 9.64803 7.45422 9.32127C7.61679 8.9945 7.87471 8.72342 8.19536 8.54231C8.51601 8.36121 8.88499 8.27821 9.25563 8.30381C9.62627 8.32941 9.98192 8.46247 10.2776 8.68616C10.5733 8.90984 10.7957 9.21411 10.9168 9.56047C11.0378 9.90683 11.0521 10.2797 10.9577 10.632C10.8951 10.8659 10.7862 11.0849 10.6371 11.2765C10.488 11.4682 10.3017 11.6287 10.0889 11.7489C9.87601 11.8692 9.64074 11.9467 9.39651 11.9772C9.15228 12.0077 8.90387 11.9905 8.66547 11.9267ZM15.4448 13.7432C15.0857 13.647 14.7626 13.4484 14.5165 13.1727C14.2704 12.897 14.1122 12.5565 14.062 12.1943C14.0117 11.832 14.0717 11.4643 14.2344 11.1376C14.397 10.8109 14.6549 10.5399 14.9756 10.3588C15.2963 10.1778 15.6652 10.0949 16.0358 10.1205C16.4064 10.1462 16.7621 10.2792 17.0577 10.5029C17.3533 10.7266 17.5757 11.0309 17.6968 11.3772C17.8178 11.7236 17.832 12.0964 17.7376 12.4487C17.675 12.6826 17.5661 12.9017 17.4169 13.0933C17.2678 13.285 17.0815 13.4456 16.8685 13.5658C16.6556 13.686 16.4203 13.7635 16.176 13.794C15.9317 13.8244 15.6832 13.8071 15.4448 13.7432ZM22.226 15.5602C21.8669 15.4641 21.5437 15.2657 21.2975 14.99C21.0512 14.7144 20.893 14.3739 20.8426 14.0116C20.7923 13.6493 20.8522 13.2816 21.0148 12.9548C21.1773 12.628 21.4353 12.357 21.7559 12.1759C22.0766 11.9947 22.4455 11.9117 22.8162 11.9374C23.1868 11.963 23.5425 12.096 23.8382 12.3197C24.1339 12.5434 24.3563 12.8476 24.4773 13.194C24.5984 13.5404 24.6126 13.9133 24.5182 14.2655C24.3917 14.7378 24.0791 15.1394 23.6493 15.3822C23.2194 15.625 22.7075 15.689 22.226 15.5602Z" fill="white"/>
</svg>
