<svg width="31" height="24" viewBox="0 0 31 24" fill="none" xmlns="http://www.w3.org/2000/svg">
<g clip-path="url(#clip0_2676_989)">
<path d="M28.824 6.36194H27.9749V15.5153C27.9749 16.941 27.1302 18.2304 25.4326 18.2304H8.81592V18.6675C8.81592 19.9283 10.2768 21.1995 11.7772 21.1995H24.4828L29.3425 24.0019L28.6368 21.1989H28.8222C30.3214 21.1989 30.9981 19.9259 30.9981 18.6668V8.53268C30.9999 7.27121 30.3232 6.36194 28.824 6.36194Z" fill="#272833"/>
<path d="M22.9521 -0.00360107H3.65222C1.95403 -0.00360107 0 1.47609 0 2.90244V14.3787C0 15.6923 1.65555 16.641 3.24374 16.7865L2.21358 20.6351L8.8364 16.8162H22.9521C24.6497 16.8162 26.2175 15.8063 26.2175 14.3811V2.90608C26.2175 1.47852 24.6497 -0.00360107 22.9521 -0.00360107ZM6.59686 9.68442C6.25192 9.68454 5.91469 9.58431 5.62782 9.39641C5.34096 9.20852 5.11734 8.94139 4.98525 8.62882C4.85316 8.31625 4.81854 7.97228 4.88576 7.64041C4.95298 7.30853 5.11902 7.00367 5.36289 6.76437C5.60676 6.52507 5.91749 6.36209 6.2558 6.29603C6.5941 6.22998 6.94478 6.26382 7.26347 6.39328C7.58217 6.52273 7.85457 6.74199 8.04622 7.02332C8.23787 7.30465 8.34017 7.63541 8.34017 7.97377C8.34025 8.19839 8.29521 8.42082 8.20764 8.62836C8.12007 8.8359 7.99167 9.02449 7.82978 9.18334C7.66789 9.3422 7.47569 9.46821 7.26414 9.55419C7.05259 9.64017 6.82585 9.68442 6.59686 9.68442ZM13.1084 9.68442C12.7635 9.68442 12.4264 9.58409 12.1396 9.39612C11.8528 9.20815 11.6293 8.94098 11.4973 8.6284C11.3653 8.31582 11.3307 7.97187 11.398 7.64004C11.4653 7.3082 11.6314 7.0034 11.8753 6.76416C12.1192 6.52492 12.4299 6.36199 12.7682 6.29599C13.1065 6.22998 13.4572 6.26386 13.7758 6.39333C14.0945 6.52281 14.3668 6.74207 14.5585 7.02338C14.7501 7.3047 14.8524 7.63543 14.8524 7.97377C14.8524 8.19844 14.8074 8.42092 14.7198 8.6285C14.6322 8.83608 14.5037 9.02469 14.3418 9.18356C14.1798 9.34242 13.9875 9.46842 13.7759 9.55436C13.5643 9.6403 13.3375 9.6845 13.1084 9.68442ZM19.6219 9.68442C19.2769 9.68454 18.9397 9.58431 18.6528 9.39641C18.366 9.20852 18.1424 8.94139 18.0103 8.62882C17.8782 8.31625 17.8436 7.97228 17.9108 7.64041C17.978 7.30853 18.144 7.00367 18.3879 6.76437C18.6318 6.52507 18.9425 6.36209 19.2808 6.29603C19.6191 6.22998 19.9698 6.26382 20.2885 6.39328C20.6072 6.52273 20.8796 6.74199 21.0712 7.02332C21.2629 7.30465 21.3652 7.63541 21.3652 7.97377C21.3652 8.42735 21.1815 8.86237 20.8546 9.18316C20.5277 9.50396 20.0843 9.68426 19.6219 9.68442Z" fill="white"/>
</g>
<defs>
<clipPath id="clip0_2676_989">
<rect width="31" height="24" fill="white"/>
</clipPath>
</defs>
</svg>
