<svg width="14" height="14" viewBox="0 0 14 14" fill="none" xmlns="http://www.w3.org/2000/svg">
<path d="M13.0756 0.919989C12.9349 0.779028 12.7441 0.700012 12.545 0.700012C12.346 0.700012 12.1551 0.779032 12.0143 0.919989L6.97819 5.95613L1.93819 0.919989C1.74868 0.730312 1.47246 0.656319 1.21348 0.725623C0.954489 0.795099 0.752246 0.99733 0.682775 1.25632C0.613466 1.51531 0.687463 1.79152 0.876969 1.98121L5.91697 7.01735L0.880826 12.0574C0.691149 12.2469 0.617156 12.5231 0.68646 12.7821C0.755936 13.0411 0.958166 13.2433 1.21716 13.3128C1.47615 13.3821 1.75236 13.3081 1.94205 13.1186L13.0798 1.98086C13.22 1.83973 13.2986 1.64855 13.2979 1.44952C13.2971 1.25047 13.2174 1.05978 13.0759 0.919672L13.0756 0.919989Z" fill="#9FA2B0"/>
<path d="M9.89599 8.87347C9.70062 8.72548 9.44513 8.68246 9.21195 8.75796C8.97891 8.83363 8.79727 9.01845 8.72595 9.25283C8.65446 9.48737 8.70217 9.742 8.85351 9.93469L12.0373 13.1185C12.2268 13.308 12.5031 13.382 12.762 13.3127C13.021 13.2432 13.2233 13.041 13.2927 12.782C13.3621 12.523 13.2881 12.2468 13.0985 12.0573L9.89599 8.87347Z" fill="#9FA2B0"/>
</svg>
