<svg width="24" height="24" viewBox="0 0 24 24" fill="none" xmlns="http://www.w3.org/2000/svg">
<g clip-path="url(#clip0_3537_4780)">
<rect width="24" height="24" rx="12" fill="#2333E6"/>
<path d="M7.56488 11.1844L7.56488 11.1844L7.56578 11.1853L11.3991 15.1087L11.3991 15.1087L11.3999 15.1095C11.4984 15.208 11.6356 15.2616 11.7701 15.2683C11.9046 15.2751 12.0472 15.2351 12.1502 15.132L12.1502 15.132L12.1512 15.131L15.9845 11.1851L15.9845 11.1851L15.9852 11.1844C16.1191 11.0438 16.1649 10.8773 16.1459 10.7176C16.1274 10.5608 16.0474 10.4154 15.9382 10.3063C15.8291 10.1972 15.6845 10.1181 15.5292 10.1027C15.3705 10.087 15.2078 10.1389 15.0738 10.2794C15.0737 10.2795 15.0736 10.2797 15.0734 10.2798L11.7859 13.6557L8.47587 10.2793C8.3419 10.1389 8.17925 10.087 8.02067 10.1027C7.86537 10.1181 7.72076 10.1972 7.61171 10.3063C7.50257 10.4154 7.42267 10.5608 7.40412 10.7175C7.38523 10.8772 7.43097 11.0438 7.56488 11.1844Z" fill="white" stroke="white" stroke-width="0.2"/>
</g>
<defs>
<clipPath id="clip0_3537_4780">
<rect width="24" height="24" rx="12" fill="white"/>
</clipPath>
</defs>
</svg>
