<svg width="25" height="25" viewBox="0 0 25 25" fill="none" xmlns="http://www.w3.org/2000/svg">
<rect x="0.5" y="0.5" width="24" height="24" rx="4.5" fill="#F6FAFF"/>
<path d="M8.05273 16.1785H9.07059V20.2499H8.05273V16.1785Z" fill="#428DF1"/>
<path d="M10.0898 16.1785H11.1077V20.2499H10.0898V16.1785Z" fill="#428DF1"/>
<path d="M12.6339 6H6.52679C6.12226 6.00125 5.73454 6.16245 5.4485 6.4485C5.16245 6.73455 5.00125 7.12226 5 7.52679V19.2321C5.0008 19.5018 5.10826 19.7603 5.29899 19.951C5.48971 20.1418 5.74815 20.2492 6.01786 20.25H7.03571V16.1786C7.03651 15.9089 7.14398 15.6505 7.3347 15.4597C7.52543 15.269 7.78387 15.1615 8.05357 15.1607H11.1071C11.3768 15.1615 11.6353 15.269 11.826 15.4597C12.0168 15.6504 12.1242 15.9089 12.125 16.1786V20.25H14.1607V7.52679C14.1595 7.12226 13.9983 6.73454 13.7122 6.4485C13.4262 6.16245 13.0385 6.00125 12.6339 6ZM8.5625 13.6339H7.54464C7.36277 13.6339 7.19476 13.5369 7.10388 13.3795C7.013 13.222 7.013 13.028 7.10388 12.8705C7.19476 12.7131 7.36278 12.6161 7.54464 12.6161H8.5625C8.74437 12.6161 8.91238 12.7131 9.00326 12.8705C9.09414 13.028 9.09414 13.222 9.00326 13.3795C8.91238 13.5369 8.74437 13.6339 8.5625 13.6339ZM8.5625 11.5982H7.54464C7.36277 11.5982 7.19476 11.5012 7.10388 11.3438C7.013 11.1863 7.013 10.9923 7.10388 10.8348C7.19476 10.6774 7.36278 10.5804 7.54464 10.5804H8.5625C8.74437 10.5804 8.91238 10.6774 9.00326 10.8348C9.09414 10.9923 9.09414 11.1863 9.00326 11.3438C8.91238 11.5012 8.74437 11.5982 8.5625 11.5982ZM8.5625 9.5625H7.54464C7.36277 9.5625 7.19476 9.46549 7.10388 9.30804C7.013 9.15059 7.013 8.95656 7.10388 8.79911C7.19476 8.64166 7.36278 8.54464 7.54464 8.54464H8.5625C8.74437 8.54464 8.91238 8.64166 9.00326 8.79911C9.09414 8.95656 9.09414 9.15059 9.00326 9.30804C8.91238 9.46548 8.74437 9.5625 8.5625 9.5625ZM11.6161 13.6339H10.5982C10.4163 13.6339 10.2483 13.5369 10.1575 13.3795C10.0666 13.222 10.0666 13.028 10.1575 12.8705C10.2483 12.7131 10.4163 12.6161 10.5982 12.6161H11.6161C11.7979 12.6161 11.966 12.7131 12.0568 12.8705C12.1477 13.028 12.1477 13.222 12.0568 13.3795C11.966 13.5369 11.7979 13.6339 11.6161 13.6339ZM11.6161 11.5982H10.5982C10.4163 11.5982 10.2483 11.5012 10.1575 11.3438C10.0666 11.1863 10.0666 10.9923 10.1575 10.8348C10.2483 10.6774 10.4163 10.5804 10.5982 10.5804H11.6161C11.7979 10.5804 11.966 10.6774 12.0568 10.8348C12.1477 10.9923 12.1477 11.1863 12.0568 11.3438C11.966 11.5012 11.7979 11.5982 11.6161 11.5982ZM11.6161 9.5625H10.5982C10.4163 9.5625 10.2483 9.46549 10.1575 9.30804C10.0666 9.15059 10.0666 8.95656 10.1575 8.79911C10.2483 8.64166 10.4163 8.54464 10.5982 8.54464H11.6161C11.7979 8.54464 11.966 8.64166 12.0568 8.79911C12.1477 8.95656 12.1477 9.15059 12.0568 9.30804C11.966 9.46548 11.7979 9.5625 11.6161 9.5625Z" fill="#428DF1"/>
<path d="M17.7224 10.0715H15.1777V20.2501H18.2313C18.501 20.2493 18.7594 20.1418 18.9502 19.9511C19.1409 19.7604 19.2484 19.502 19.2492 19.2322V11.5983C19.2479 11.1938 19.0867 10.8061 18.8007 10.52C18.5146 10.234 18.1269 10.0728 17.7224 10.0715ZM17.7224 17.7055H16.7045C16.5226 17.7055 16.3546 17.6084 16.2638 17.451C16.1729 17.2935 16.1729 17.0995 16.2638 16.9421C16.3546 16.7846 16.5227 16.6876 16.7045 16.6876H17.7224C17.9043 16.6876 18.0723 16.7846 18.1631 16.9421C18.254 17.0995 18.254 17.2936 18.1631 17.451C18.0723 17.6084 17.9042 17.7055 17.7224 17.7055ZM17.7224 15.6697H16.7045C16.5226 15.6697 16.3546 15.5727 16.2638 15.4153C16.1729 15.2578 16.1729 15.0638 16.2638 14.9064C16.3546 14.7489 16.5227 14.6519 16.7045 14.6519H17.7224C17.9043 14.6519 18.0723 14.7489 18.1631 14.9064C18.254 15.0638 18.254 15.2578 18.1631 15.4153C18.0723 15.5727 17.9042 15.6697 17.7224 15.6697ZM17.7224 13.634H16.7045C16.5226 13.634 16.3546 13.537 16.2638 13.3796C16.1729 13.2221 16.1729 13.0281 16.2638 12.8706C16.3546 12.7132 16.5227 12.6162 16.7045 12.6162H17.7224C17.9043 12.6162 18.0723 12.7132 18.1631 12.8706C18.254 13.0281 18.254 13.2221 18.1631 13.3796C18.0723 13.537 17.9042 13.634 17.7224 13.634Z" fill="#428DF1"/>
<rect x="0.5" y="0.5" width="24" height="24" rx="4.5" stroke="#DDE4F2"/>
</svg>
