<svg width="70" height="70" viewBox="0 0 70 70" fill="none" xmlns="http://www.w3.org/2000/svg">
<circle cx="35" cy="35" r="35" fill="url(#paint0_linear_2987_1577)"/>
<path d="M35.5 13L17.5 21V33C17.5 44.1 25.1799 54.48 35.5 57C45.8201 54.4799 53.5 44.0994 53.5 33V21L35.5 13ZM35.5 21C37.0915 21 38.6174 21.6321 39.7429 22.7571C40.8679 23.8826 41.5 25.4085 41.5 27C41.5 28.5915 40.8679 30.1174 39.7429 31.2429C38.6174 32.3679 37.0915 33 35.5 33C33.9085 33 32.3826 32.3679 31.2571 31.2429C30.1321 30.1174 29.5 28.5915 29.5 27C29.5 25.4085 30.1321 23.8826 31.2571 22.7571C32.3826 21.6321 33.9085 21 35.5 21ZM45.7598 45C43.3366 48.7094 39.7155 51.4763 35.5 52.8402C31.2843 51.4763 27.6634 48.7094 25.2402 45C24.5603 44 23.9805 43 23.5 41.9402C23.5 38.6402 28.9201 35.9402 35.5 35.9402C42.0799 35.9402 47.5 38.5805 47.5 41.9402C47.0201 43 46.4402 44 45.7598 45Z" fill="white"/>
<defs>
<linearGradient id="paint0_linear_2987_1577" x1="35" y1="0" x2="35" y2="70" gradientUnits="userSpaceOnUse">
<stop stop-color="#1E379A" stop-opacity="0.17"/>
<stop offset="1" stop-color="#1E379A" stop-opacity="0.04"/>
</linearGradient>
</defs>
</svg>
