<svg xmlns="http://www.w3.org/2000/svg" width="12em" height="12em" viewBox="0 0 171 168" fill="none">
<path class="loaderPath1" fill-rule="evenodd" clip-rule="evenodd" d="M5.04429 57.7348C3.07963 62.2899 1.30759 72.161 0.881531 80.9204C-0.400504 107.298 12.3243 134.318 33.3515 149.868C37.2239 152.732 38.26 153.16 40.2857 152.733C44.1278 151.924 44.0702 151.699 39.2062 148.506C24.566 138.896 12.1363 120.896 7.38262 102.422C5.05817 93.388 5.06971 74.4568 7.40419 66.0662C8.94202 60.5388 8.94665 60.3145 7.58603 57.7348L6.18842 55.084L5.04429 57.7348Z" fill="#3A427A"/>
<path class="loaderPath2" fill-rule="evenodd" clip-rule="evenodd" d="M70.3625 1.5756C59.5005 3.51302 45.2741 9.34576 36.5904 15.4224C31.5685 18.936 21.4332 28.633 17.9492 33.2569C15.4067 36.6303 15.2534 37.134 15.8813 40.0567L16.5585 43.2129L20.3869 37.9277C34.2882 18.7361 56.7115 6.62518 80.8923 5.24899C89.1808 4.77712 99.7469 5.79961 106.205 7.69842C109.105 8.55124 109.914 8.51869 112.176 7.45908C113.614 6.78424 114.791 6.00412 114.791 5.72539C114.791 5.00056 104.516 2.15046 98.6119 1.23855C91.8435 0.193343 77.1271 0.369059 70.3625 1.5756ZM120.185 8.5558C117.574 9.4783 109.717 13.5667 107.891 14.9536C106.813 15.7723 91.9537 30.1418 74.8696 46.8863C43.6369 77.4974 42.301 79.0371 46.3035 79.8089C46.8936 79.9233 60.7248 66.8689 77.0392 50.7989C107.984 20.3189 113.792 15.4292 122.122 12.848C124.446 12.1277 126.348 11.3332 126.348 11.0825C126.348 10.6349 122.129 7.97032 121.607 8.08772C121.46 8.1203 120.82 8.33085 120.185 8.5558ZM10.1245 45.6775L8.49805 48.81L11.6746 55.1178C14.7457 61.2156 15.9175 62.4774 47.0778 93.2355L79.3043 125.046L81.0048 123.377L82.7044 121.707L51.3229 90.7974C34.0633 73.7966 18.9577 58.3328 17.7551 56.4333C16.5524 54.5346 14.7087 50.6324 13.6593 47.7626L11.7501 42.5449L10.1245 45.6775Z" fill="#3A427A"/>
<path class="loaderPath3" fill-rule="evenodd" clip-rule="evenodd" d="M90.1746 45.0096C88.727 46.582 88.8341 46.6971 120.4 77.8029C151.476 108.427 152.136 109.14 155.214 115.417C156.94 118.936 158.351 122.259 158.351 122.802C158.351 124.401 159.553 123.934 160.657 121.905C161.478 120.398 161.499 119.418 160.767 117.014C158.667 110.126 152.612 103.29 121.951 73.1963C91.6825 43.4872 91.6238 43.4351 90.1746 45.0096ZM92.0924 118.766C72.6545 137.802 59.469 150.13 57.1229 151.459C55.052 152.633 51.2381 154.349 48.6479 155.273L43.939 156.952L46.889 158.338L49.8391 159.724L56.5198 156.397C62.9946 153.172 64.1788 152.112 94.9707 122.003C125.042 92.5986 126.673 90.8634 125.477 89.5637C124.781 88.8086 124.006 88.1943 123.754 88.199C123.502 88.2035 109.254 101.959 92.0924 118.766ZM151.035 129.655C149.765 131.63 145.952 135.998 142.56 139.36C129.71 152.101 114.141 159.956 96.7983 162.45C88.7793 163.602 74.5214 163.033 66.4677 161.239C61.7834 160.195 60.0739 160.093 58.5707 160.766C57.5151 161.239 56.6515 161.92 56.6515 162.281C56.6515 163.355 68.0418 166.093 76.3011 167.004C104.269 170.091 134.267 157.835 150.854 136.547C154.73 131.571 155.223 130.562 154.795 128.461C154.526 127.141 154.09 126.061 153.825 126.062C153.56 126.063 152.305 127.68 151.035 129.655Z" fill="#3A427A"/>
<path class="loaderPath4" fill-rule="evenodd" clip-rule="evenodd" d="M128.637 14.7368C127.461 15.1928 128.122 15.9456 132.523 19.1623C143.908 27.4854 152.01 37.0976 157.843 49.2031C163.493 60.9276 165.329 69.0733 165.381 82.6263C165.416 91.8659 165.111 95.2197 163.747 100.589C162.143 106.906 162.128 107.289 163.399 109.483C164.987 112.226 165.538 112.344 166.202 110.082C170.267 96.2489 171.51 82.6188 169.787 70.8071C168.627 62.8567 164.36 50.0892 160.701 43.6202C154.947 33.4461 146.21 23.3159 137.813 17.0832C133.887 14.1703 131.6" fill="#3A427A"/>
</svg>
