<svg width="17" height="17" viewBox="0 0 17 17" fill="none" xmlns="http://www.w3.org/2000/svg">
<path d="M4.95833 7.79163V4.95829C4.95833 4.01898 5.33147 3.11815 5.99566 2.45396C6.65985 1.78976 7.56069 1.41663 8.5 1.41663C9.43931 1.41663 10.3401 1.78976 11.0043 2.45396C11.6685 3.11815 12.0417 4.01898 12.0417 4.95829V7.79163M3.54167 7.79163H13.4583C14.2407 7.79163 14.875 8.42589 14.875 9.20829V14.1666C14.875 14.949 14.2407 15.5833 13.4583 15.5833H3.54167C2.75926 15.5833 2.125 14.949 2.125 14.1666V9.20829C2.125 8.42589 2.75926 7.79163 3.54167 7.79163Z" stroke="#272833" stroke-width="1.3" stroke-linecap="round" stroke-linejoin="round"/>
</svg>
