<svg width="16" height="16" viewBox="0 0 16 16" fill="none" xmlns="http://www.w3.org/2000/svg">
<path d="M13.9109 0.16571C14.7509 0.16571 15.4382 0.85301 15.4382 1.69301V5.89301C15.4382 6.73301 14.7509 7.42031 13.9109 7.42031H9.71093C8.87093 7.42031 8.18363 6.73301 8.18363 5.89301V1.69301C8.18363 0.85301 8.87093 0.16571 9.71093 0.16571H13.9109ZM5.89283 0.16571C6.73283 0.16571 7.42013 0.85301 7.42013 1.69301V5.89301C7.42013 6.73301 6.73283 7.42031 5.89283 7.42031H1.69283C0.852827 7.42031 0.165527 6.73301 0.165527 5.89301V1.69301C0.165527 0.85301 0.852827 0.16571 1.69283 0.16571H5.89283ZM13.9109 8.18381C14.7509 8.18381 15.4382 8.87111 15.4382 9.71111V13.9111C15.4382 14.7511 14.7509 15.4384 13.9109 15.4384H9.71093C8.87093 15.4384 8.18363 14.7511 8.18363 13.9111V9.71111C8.18363 8.87111 8.87093 8.18381 9.71093 8.18381H13.9109ZM5.89283 8.18381C6.73283 8.18381 7.42013 8.87111 7.42013 9.71111V13.9111C7.42013 14.7511 6.73283 15.4384 5.89283 15.4384H1.69283C0.852827 15.4384 0.165527 14.7511 0.165527 13.9111V9.71111C0.165527 8.87111 0.852827 8.18381 1.69283 8.18381H5.89283Z" fill="white"/>
</svg>
