<svg width="16" height="16" viewBox="0 0 21 20" fill="none" xmlns="http://www.w3.org/2000/svg">
<path d="M1.85314 0.597932L19.9131 9.23536C20.0957 9.32252 20.2498 9.45958 20.3577 9.63068C20.4656 9.80178 20.5229 9.99993 20.5229 10.2022C20.5229 10.4045 20.4656 10.6027 20.3577 10.7738C20.2498 10.9449 20.0957 11.0819 19.9131 11.1691L1.85314 19.8065C1.668 19.8952 1.46128 19.9288 1.25758 19.9034C1.05388 19.8779 0.861769 19.7945 0.704111 19.6631C0.546454 19.5316 0.429883 19.3576 0.36827 19.1618C0.306657 18.966 0.302595 18.7566 0.356567 18.5585L2.16342 11.9345C2.18554 11.8533 2.23107 11.7804 2.29432 11.725C2.35758 11.6695 2.43577 11.6338 2.51914 11.6225L11.2706 10.4336C11.3071 10.4284 11.3418 10.4139 11.371 10.3913C11.4003 10.3688 11.4233 10.3391 11.4377 10.3051L11.4531 10.2519C11.4599 10.2041 11.4503 10.1553 11.4259 10.1136C11.4014 10.0719 11.3636 10.0397 11.3186 10.0222L11.2714 10.0094L2.52857 8.8205C2.44535 8.809 2.36735 8.7733 2.30426 8.71782C2.24117 8.66235 2.19577 8.58956 2.17371 8.5085L0.356567 1.84679C0.302377 1.64867 0.306273 1.43915 0.367794 1.24319C0.429314 1.04722 0.545865 0.873071 0.703564 0.741474C0.861264 0.609877 1.05347 0.526382 1.25728 0.500933C1.46109 0.475483 1.66792 0.509153 1.85314 0.597932Z" fill="white"/>
</svg>
