<svg width="18" height="20" viewBox="0 0 18 20" fill="none" xmlns="http://www.w3.org/2000/svg">
<path d="M10.4417 17.3333C10.2952 17.5859 10.0849 17.7955 9.83185 17.9413C9.57884 18.087 9.29198 18.1637 9 18.1637C8.70802 18.1637 8.42116 18.087 8.16814 17.9413C7.91513 17.7955 7.70484 17.5859 7.55833 17.3333M14 6.5C14 5.17392 13.4732 3.90215 12.5355 2.96447C11.5979 2.02678 10.3261 1.5 9 1.5C7.67392 1.5 6.40215 2.02678 5.46447 2.96447C4.52678 3.90215 4 5.17392 4 6.5C4 12.3333 1.5 14 1.5 14H16.5C16.5 14 14 12.3333 14 6.5Z" stroke="#272833" stroke-width="1.7" stroke-linecap="round" stroke-linejoin="round"/>
</svg>
