<svg width="20" height="21" viewBox="0 0 20 21" fill="none" xmlns="http://www.w3.org/2000/svg">
<path d="M18.6534 10.1293L10.2293 18.5534C9.19725 19.5854 7.79752 20.1652 6.33802 20.1652C4.87852 20.1652 3.47879 19.5854 2.44677 18.5534C1.41475 17.5214 0.834961 16.1217 0.834961 14.6622C0.834961 13.2027 1.41475 11.8029 2.44677 10.7709L10.8709 2.34676C11.559 1.65874 12.4921 1.27222 13.4651 1.27222C14.4381 1.27222 15.3713 1.65874 16.0593 2.34676C16.7473 3.03477 17.1338 3.96792 17.1338 4.94092C17.1338 5.91392 16.7473 6.84707 16.0593 7.53509L7.62594 15.9593C7.28193 16.3033 6.81535 16.4965 6.32885 16.4965C5.84235 16.4965 5.37578 16.3033 5.03177 15.9593C4.68776 15.6152 4.4945 15.1487 4.4945 14.6622C4.4945 14.1757 4.68776 13.7091 5.03177 13.3651L12.8143 5.59176" stroke="#2333E6" stroke-width="1.3" stroke-linecap="round" stroke-linejoin="round"/>
</svg>
