<svg width="25" height="25" viewBox="0 0 25 25" fill="none" xmlns="http://www.w3.org/2000/svg">
<rect x="0.5" y="0.5" width="24" height="24" rx="4.5" fill="#F6FAFF"/>
<path d="M10.6808 12.4891C10.6849 12.4914 10.6889 12.4938 10.6929 12.4963C10.785 12.552 10.8799 12.6038 10.9773 12.6511C10.9849 12.6545 10.9925 12.6581 11.0001 12.6616C11.039 12.68 11.0782 12.6978 11.1176 12.7147C11.13 12.72 11.1425 12.7256 11.1549 12.7309C11.2004 12.7498 11.2461 12.768 11.2926 12.7852C11.2998 12.7878 11.3069 12.7901 11.3142 12.7929C11.3547 12.8075 11.3958 12.8214 11.437 12.8344C11.455 12.8403 11.4729 12.8456 11.4909 12.851C11.5236 12.861 11.5567 12.8702 11.5898 12.8791C11.6065 12.8835 11.6233 12.8884 11.6403 12.8929C11.6859 12.9043 11.7318 12.9149 11.7782 12.9248C11.7962 12.9285 11.8142 12.932 11.8324 12.9354C11.866 12.942 11.8997 12.9478 11.9338 12.9536C11.9521 12.9566 11.9701 12.9596 11.9882 12.9623C12.0368 12.9695 12.0855 12.9759 12.1348 12.981C12.1461 12.9823 12.1574 12.983 12.1685 12.984C12.2108 12.9879 12.2532 12.9913 12.2959 12.9936C12.3111 12.9945 12.3261 12.9955 12.3412 12.996C12.394 12.9984 12.4469 13 12.5002 13C12.5535 13 12.6065 12.9983 12.6591 12.996C12.6743 12.9954 12.6893 12.9944 12.7046 12.9936C12.7472 12.9912 12.7894 12.9879 12.8317 12.984C12.8429 12.983 12.8543 12.9823 12.8654 12.981C12.9145 12.9759 12.9632 12.9694 13.0119 12.9623C13.0302 12.9596 13.0484 12.9567 13.0665 12.9536C13.1004 12.9479 13.1341 12.942 13.1677 12.9356C13.186 12.932 13.2041 12.9286 13.2224 12.9248C13.2685 12.9151 13.3145 12.9043 13.36 12.8929C13.3772 12.8886 13.394 12.8836 13.4112 12.879C13.4441 12.8701 13.4767 12.8611 13.509 12.8511C13.5273 12.8457 13.5455 12.8402 13.5635 12.8345C13.6043 12.8215 13.6447 12.8077 13.6848 12.7934C13.6929 12.7904 13.7011 12.7877 13.7091 12.7848C13.7547 12.7676 13.8 12.7497 13.8449 12.7309C13.8575 12.7256 13.8704 12.72 13.8831 12.7146C13.9222 12.6978 13.9611 12.6802 13.9995 12.6619C14.0074 12.6583 14.0154 12.6546 14.0231 12.6509C14.0716 12.6274 14.1196 12.6029 14.1669 12.5772C14.167 12.5771 14.1673 12.5769 14.1675 12.5769C14.2146 12.551 14.2609 12.5243 14.3068 12.4966C14.3111 12.4939 14.3153 12.4913 14.3197 12.4887C15.3265 11.8733 16 10.764 16 9.49992C16.0004 7.57013 14.4302 6 12.5003 6C10.5702 6 9 7.57015 9 9.49992C9 10.7641 9.67368 11.8738 10.6809 12.4892L10.6808 12.4891Z" fill="#428DF1"/>
<path d="M18.6278 16.4539C17.9827 14.6029 16.6057 13.4412 14.5344 13C14.4873 13.0279 14.4394 13.0546 14.3914 13.0806C14.3884 13.0822 14.3853 13.0838 14.3823 13.0853C14.3327 13.1119 14.283 13.1371 14.2324 13.1614C14.2244 13.1653 14.2164 13.1692 14.2084 13.1731C14.1552 13.1984 14.1018 13.2224 14.0478 13.2454C14.0397 13.2486 14.0316 13.2518 14.0235 13.2552C13.9789 13.2735 13.9342 13.2911 13.8889 13.3078C13.8726 13.3138 13.8562 13.32 13.8398 13.3258C13.7896 13.3437 13.7392 13.361 13.6883 13.3766C13.675 13.3808 13.6616 13.3845 13.6481 13.3885C13.6061 13.401 13.5639 13.4129 13.5216 13.4244C13.501 13.4296 13.4803 13.4351 13.4597 13.4401C13.416 13.4509 13.372 13.4609 13.3277 13.4704C13.3091 13.4744 13.2901 13.478 13.2714 13.4819C13.2253 13.4909 13.1791 13.4991 13.1327 13.5065C13.113 13.5097 13.0933 13.5128 13.0734 13.5155C13.024 13.5225 12.9745 13.529 12.9248 13.5342C12.9152 13.5353 12.9057 13.5366 12.8964 13.5374C12.8404 13.543 12.7844 13.547 12.7279 13.5504C12.712 13.5511 12.6962 13.5518 12.6802 13.5527C12.6203 13.5554 12.5605 13.5572 12.5004 13.5572C12.4403 13.5572 12.3805 13.5553 12.3205 13.5527C12.3048 13.5518 12.2888 13.5511 12.2729 13.5504C12.2166 13.5471 12.1603 13.5429 12.1044 13.5374C12.0951 13.5365 12.0855 13.5352 12.076 13.5342C12.0263 13.529 11.9768 13.5225 11.9274 13.5155C11.9074 13.5126 11.8878 13.5096 11.868 13.5065C11.8217 13.4991 11.7754 13.491 11.7294 13.4819C11.7107 13.478 11.6918 13.4744 11.6732 13.4704C11.6289 13.4611 11.5849 13.4509 11.541 13.4401C11.5203 13.4351 11.4998 13.4296 11.4793 13.4244C11.4369 13.4129 11.3945 13.401 11.3525 13.3885C11.3392 13.3845 11.3258 13.3808 11.3126 13.3767C11.2616 13.3609 11.211 13.3436 11.1607 13.3257C11.1444 13.3199 11.1282 13.314 11.1121 13.3079C11.0667 13.2911 11.0218 13.2733 10.9769 13.2549C10.9689 13.2516 10.9609 13.2486 10.953 13.2454C10.8988 13.2225 10.8453 13.1983 10.7921 13.1731C10.7841 13.1692 10.7764 13.1655 10.7684 13.1616C10.7177 13.1373 10.6677 13.1118 10.6179 13.0852C10.6149 13.0835 10.6121 13.0822 10.6092 13.0806C10.5609 13.0546 10.513 13.0279 10.4657 13C8.38866 13.4421 7.00992 14.609 6.36715 16.4687C5.99061 17.5588 5.987 18.58 6.00604 19H18.9941C19.013 18.5771 19.0087 17.5461 18.6278 16.4538L18.6278 16.4539Z" fill="#428DF1"/>
<rect x="0.5" y="0.5" width="24" height="24" rx="4.5" stroke="#DDE4F2"/>
</svg>
