<svg width="70" height="70" viewBox="0 0 70 70" fill="none" xmlns="http://www.w3.org/2000/svg">
<circle cx="35" cy="35" r="35" fill="url(#paint0_linear_2741_3712)"/>
<path d="M48.7933 16.72C50.7533 16.72 52.357 18.3237 52.357 20.2837V30.0837C52.357 32.0437 50.7533 33.6474 48.7933 33.6474H38.9933C37.0333 33.6474 35.4296 32.0437 35.4296 30.0837V20.2837C35.4296 18.3237 37.0333 16.72 38.9933 16.72H48.7933ZM30.0844 16.72C32.0444 16.72 33.6481 18.3237 33.6481 20.2837V30.0837C33.6481 32.0437 32.0444 33.6474 30.0844 33.6474H20.2844C18.3244 33.6474 16.7207 32.0437 16.7207 30.0837V20.2837C16.7207 18.3237 18.3244 16.72 20.2844 16.72H30.0844ZM48.7933 35.4289C50.7533 35.4289 52.357 37.0326 52.357 38.9926V48.7926C52.357 50.7526 50.7533 52.3563 48.7933 52.3563H38.9933C37.0333 52.3563 35.4296 50.7526 35.4296 48.7926V38.9926C35.4296 37.0326 37.0333 35.4289 38.9933 35.4289H48.7933ZM30.0844 35.4289C32.0444 35.4289 33.6481 37.0326 33.6481 38.9926V48.7926C33.6481 50.7526 32.0444 52.3563 30.0844 52.3563H20.2844C18.3244 52.3563 16.7207 50.7526 16.7207 48.7926V38.9926C16.7207 37.0326 18.3244 35.4289 20.2844 35.4289H30.0844Z" fill="white"/>
<defs>
<linearGradient id="paint0_linear_2741_3712" x1="35" y1="0" x2="35" y2="70" gradientUnits="userSpaceOnUse">
<stop stop-color="#1E379A" stop-opacity="0.17"/>
<stop offset="1" stop-color="#1E379A" stop-opacity="0.04"/>
</linearGradient>
</defs>
</svg>
