<svg width="18" height="18" viewBox="0 0 18 18" fill="none" xmlns="http://www.w3.org/2000/svg">
<path d="M9.00073 2.14062C7.79658 2.14062 6.61362 2.45763 5.5707 3.05971C4.52786 3.66178 3.66193 4.52773 3.05983 5.57058C2.45775 6.61352 2.14075 7.79646 2.14075 9.00061C2.14075 10.2048 2.45775 11.3877 3.05983 12.4306C3.6619 13.4735 4.52786 14.3394 5.5707 14.9415C6.61364 15.5436 7.79658 15.8606 9.00073 15.8606C10.2049 15.8606 11.3878 15.5436 12.4308 14.9415C13.4736 14.3394 14.3395 13.4735 14.9416 12.4306C15.5437 11.3877 15.8607 10.2048 15.8607 9.00061C15.8607 7.79646 15.5437 6.6135 14.9416 5.57058C14.3396 4.52773 13.4736 3.66181 12.4308 3.05971C11.3878 2.45763 10.2049 2.14062 9.00073 2.14062ZM9.00073 4.55124C9.23828 4.55124 9.46621 4.64556 9.63415 4.8136C9.8022 4.98154 9.89651 5.20947 9.89651 5.44702C9.89651 5.68458 9.80219 5.9125 9.63415 6.08044C9.4662 6.24849 9.23828 6.3428 9.00073 6.3428C8.76318 6.3428 8.53525 6.24848 8.36731 6.08044C8.19926 5.91249 8.10494 5.68457 8.10494 5.44702C8.10494 5.20946 8.19926 4.98154 8.36731 4.8136C8.53525 4.64555 8.76318 4.55124 9.00073 4.55124ZM9.00073 7.46287C9.47181 7.46287 9.8512 7.84225 9.8512 8.31344V12.5995C9.8512 13.0706 9.47181 13.45 9.00073 13.45C8.52964 13.45 8.15025 13.0706 8.15025 12.5995V8.31344C8.15025 7.84225 8.52964 7.46287 9.00073 7.46287Z" fill="#EEB45E"/>
</svg>
