<svg width="20" height="20" viewBox="0 0 20 20" fill="none" xmlns="http://www.w3.org/2000/svg">
<path d="M14.9199 10.9138L14.9199 10.9138L14.919 10.9129L10.6598 6.5536L10.6598 6.5536L10.6589 6.55278C10.5517 6.44548 10.402 6.38689 10.255 6.37955C10.1079 6.37221 9.95284 6.41597 9.84105 6.52776L9.84104 6.52776L9.84003 6.52879L5.58078 10.9131L5.58078 10.9131L5.58009 10.9138C5.43364 11.0676 5.38385 11.2493 5.4045 11.4236C5.4248 11.5949 5.51227 11.7542 5.63209 11.874C5.75184 11.9937 5.91026 12.0802 6.07983 12.097C6.25272 12.1141 6.43015 12.0576 6.57667 11.904C6.5768 11.9039 6.57694 11.9037 6.57707 11.9036L10.2379 8.14439L13.9232 11.9036C13.9234 11.9038 13.9236 11.904 13.9238 11.9042C14.0703 12.0577 14.2476 12.1141 14.4204 12.097C14.59 12.0802 14.7484 11.9937 14.8681 11.874C14.9879 11.7543 15.0753 11.5949 15.0955 11.4236C15.1162 11.2493 15.0663 11.0676 14.9199 10.9138Z" fill="#1D2129" stroke="#1D2129" stroke-width="0.2"/>
</svg>
