<svg width="20" height="20" viewBox="0 0 20 20" fill="none" xmlns="http://www.w3.org/2000/svg">
<path d="M5.08009 9.08593L5.08008 9.08594L5.08098 9.08686L9.34024 13.4462L9.34023 13.4462L9.34105 13.447C9.44835 13.5543 9.59805 13.6129 9.74501 13.6202C9.89212 13.6275 10.0472 13.5838 10.159 13.472L10.159 13.472L10.16 13.471L14.4192 9.08666L14.4192 9.08666L14.4199 9.08595C14.5664 8.93219 14.6162 8.75044 14.5955 8.57619C14.5752 8.40488 14.4877 8.24555 14.3679 8.12577C14.2482 8.00607 14.0897 7.91957 13.9202 7.90279C13.7473 7.88568 13.5699 7.94213 13.4233 8.09573C13.4232 8.09587 13.4231 8.09601 13.4229 8.09616L9.76212 11.8554L6.07677 8.09615C6.07659 8.09596 6.07641 8.09577 6.07622 8.09558C5.92973 7.9421 5.75238 7.88568 5.57957 7.90277C5.41002 7.91954 5.25163 8.00603 5.13192 8.12573C5.01214 8.2455 4.92472 8.40484 4.90445 8.57615C4.88384 8.75041 4.93365 8.93215 5.08009 9.08593Z" fill="#9FA2B0" stroke="#9FA2B0" stroke-width="0.2"/>
</svg>
