<svg width="35" height="36" viewBox="0 0 35 36" fill="none" xmlns="http://www.w3.org/2000/svg">
<rect x="1" y="1.5" width="33" height="33" rx="16.5" fill="#F6FAF9"/>
<path d="M26.25 17.1951V18.0001C26.2489 19.887 25.6379 21.723 24.5082 23.2342C23.3784 24.7455 21.7904 25.851 19.9809 26.386C18.1715 26.921 16.2376 26.8568 14.4677 26.2029C12.6977 25.549 11.1866 24.3405 10.1596 22.7576C9.13261 21.1747 8.64482 19.3022 8.76897 17.4194C8.89312 15.5366 9.62256 13.7444 10.8485 12.3101C12.0744 10.8757 13.7312 9.87608 15.5717 9.46025C17.4121 9.04442 19.3377 9.23467 21.0613 10.0026M26.25 11.0001L17.5 19.7589L14.875 17.1339" stroke="#1ECBAC" stroke-width="1.66667" stroke-linecap="round" stroke-linejoin="round"/>
<rect x="1" y="1.5" width="33" height="33" rx="16.5" stroke="#1ECBAC" stroke-width="2"/>
</svg>
