<svg width="50" height="50" viewBox="0 0 50 50" fill="none" xmlns="http://www.w3.org/2000/svg">
<rect width="50" height="50" rx="25" fill="#D1FADF"/>
<path d="M35.4166 24.0417V25C35.4153 27.2463 34.6879 29.432 33.343 31.2311C31.998 33.0302 30.1075 34.3464 27.9534 34.9833C25.7993 35.6201 23.4971 35.5437 21.39 34.7652C19.2829 33.9868 17.4839 32.548 16.2613 30.6636C15.0387 28.7792 14.458 26.5501 14.6058 24.3087C14.7536 22.0673 15.622 19.9337 17.0815 18.2261C18.5409 16.5186 20.5132 15.3285 22.7043 14.8335C24.8953 14.3385 27.1877 14.565 29.2395 15.4792M35.4166 16.6667L24.9999 27.0938L21.8749 23.9688" stroke="#53A272" stroke-width="2" stroke-linecap="round" stroke-linejoin="round"/>
</svg>
